<?xml version="1.0" encoding="UTF-8" standalone="no"?>
<!DOCTYPE svg PUBLIC "-//W3C//DTD SVG 1.1//EN"
 "http://www.w3.org/Graphics/SVG/1.1/DTD/svg11.dtd">
<!-- Generated by graphviz version 2.43.0 (0)
 -->
<!-- Title: sourcetree Pages: 1 -->
<svg width="347pt" height="116pt"
 viewBox="0.00 0.00 346.50 116.00" xmlns="http://www.w3.org/2000/svg" xmlns:xlink="http://www.w3.org/1999/xlink">
<g id="graph0" class="graph" transform="scale(1 1) rotate(0) translate(4 112)">
<title>sourcetree</title>
<polygon fill="white" stroke="transparent" points="-4,4 -4,-112 342.5,-112 342.5,4 -4,4"/>
<!-- MulleObjCLockFoundation -->
<g id="node1" class="node">
<title>MulleObjCLockFoundation</title>
<polygon fill="yellow" stroke="black" points="272,-108 66,-108 66,-72 272,-72 272,-108"/>
<text text-anchor="middle" x="169" y="-86.3" font-family="Times,serif" font-size="14.00">MulleObjCLockFoundation</text>
</g>
<!-- MulleObjC -->
<g id="node2" class="node">
<title>MulleObjC</title>
<polygon fill="lightgrey" stroke="black" points="92,-36 0,-36 0,0 92,0 92,-36"/>
<text text-anchor="middle" x="46" y="-14.3" font-family="Times,serif" font-size="14.00">MulleObjC</text>
</g>
<!-- MulleObjCLockFoundation&#45;&gt;MulleObjC -->
<g id="edge1" class="edge">
<title>MulleObjCLockFoundation&#45;&gt;MulleObjC</title>
<path fill="none" stroke="black" d="M138.91,-71.88C122.68,-62.64 102.46,-51.13 85.03,-41.21"/>
<polygon fill="black" stroke="black" points="86.63,-38.09 76.2,-36.19 83.16,-44.18 86.63,-38.09"/>
</g>
<!-- mulle&#45;objc&#45;list -->
<g id="node3" class="node">
<title>mulle&#45;objc&#45;list</title>
<polygon fill="lightgrey" stroke="black" points="227.5,-36 110.5,-36 110.5,0 227.5,0 227.5,-36"/>
<text text-anchor="middle" x="169" y="-14.3" font-family="Times,serif" font-size="14.00">mulle&#45;objc&#45;list</text>
</g>
<!-- MulleObjCLockFoundation&#45;&gt;mulle&#45;objc&#45;list -->
<g id="edge2" class="edge">
<title>MulleObjCLockFoundation&#45;&gt;mulle&#45;objc&#45;list</title>
<path fill="none" stroke="black" d="M169,-71.7C169,-63.98 169,-54.71 169,-46.11"/>
<polygon fill="black" stroke="black" points="172.5,-46.1 169,-36.1 165.5,-46.1 172.5,-46.1"/>
</g>
<!-- mulle&#45;time -->
<g id="node4" class="node">
<title>mulle&#45;time</title>
<polygon fill="lightgrey" stroke="black" points="338.5,-36 245.5,-36 245.5,0 338.5,0 338.5,-36"/>
<text text-anchor="middle" x="292" y="-14.3" font-family="Times,serif" font-size="14.00">mulle&#45;time</text>
</g>
<!-- MulleObjCLockFoundation&#45;&gt;mulle&#45;time -->
<g id="edge3" class="edge">
<title>MulleObjCLockFoundation&#45;&gt;mulle&#45;time</title>
<path fill="none" stroke="black" d="M199.09,-71.88C215.32,-62.64 235.54,-51.13 252.97,-41.21"/>
<polygon fill="black" stroke="black" points="254.84,-44.18 261.8,-36.19 251.37,-38.09 254.84,-44.18"/>
</g>
</g>
</svg>
