<?xml version="1.0" encoding="UTF-8" standalone="no"?>
<!DOCTYPE svg PUBLIC "-//W3C//DTD SVG 1.1//EN"
 "http://www.w3.org/Graphics/SVG/1.1/DTD/svg11.dtd">
<!-- Generated by graphviz version 2.43.0 (0)
 -->
<!-- Title: sourcetree Pages: 1 -->
<svg width="214pt" height="116pt"
 viewBox="0.00 0.00 214.00 116.00" xmlns="http://www.w3.org/2000/svg" xmlns:xlink="http://www.w3.org/1999/xlink">
<g id="graph0" class="graph" transform="scale(1 1) rotate(0) translate(4 112)">
<title>sourcetree</title>
<polygon fill="white" stroke="transparent" points="-4,4 -4,-112 210,-112 210,4 -4,4"/>
<!-- MulleObjCLockFoundation -->
<g id="node1" class="node">
<title>MulleObjCLockFoundation</title>
<polygon fill="lightgrey" stroke="black" points="206,-108 0,-108 0,-72 206,-72 206,-108"/>
<text text-anchor="middle" x="103" y="-86.3" font-family="Times,serif" font-size="14.00">MulleObjCLockFoundation</text>
</g>
<!-- MulleObjC -->
<g id="node2" class="node">
<title>MulleObjC</title>
<polygon fill="lightgrey" stroke="black" points="94,-36 2,-36 2,0 94,0 94,-36"/>
<text text-anchor="middle" x="48" y="-14.3" font-family="Times,serif" font-size="14.00">MulleObjC</text>
</g>
<!-- MulleObjCLockFoundation&#45;&gt;MulleObjC -->
<g id="edge1" class="edge">
<title>MulleObjCLockFoundation&#45;&gt;MulleObjC</title>
<path fill="none" stroke="black" d="M89.4,-71.7C82.88,-63.39 74.93,-53.28 67.75,-44.14"/>
<polygon fill="black" stroke="black" points="70.37,-41.81 61.44,-36.1 64.87,-46.13 70.37,-41.81"/>
</g>
<!-- mulle&#45;time -->
<g id="node3" class="node">
<title>mulle&#45;time</title>
<polygon fill="lightgrey" stroke="black" points="205.5,-36 112.5,-36 112.5,0 205.5,0 205.5,-36"/>
<text text-anchor="middle" x="159" y="-14.3" font-family="Times,serif" font-size="14.00">mulle&#45;time</text>
</g>
<!-- MulleObjCLockFoundation&#45;&gt;mulle&#45;time -->
<g id="edge2" class="edge">
<title>MulleObjCLockFoundation&#45;&gt;mulle&#45;time</title>
<path fill="none" stroke="black" d="M116.84,-71.7C123.49,-63.39 131.58,-53.28 138.89,-44.14"/>
<polygon fill="black" stroke="black" points="141.8,-46.1 145.32,-36.1 136.34,-41.73 141.8,-46.1"/>
</g>
</g>
</svg>
