<?xml version="1.0" encoding="UTF-8" standalone="no"?>
<!DOCTYPE svg PUBLIC "-//W3C//DTD SVG 1.1//EN"
 "http://www.w3.org/Graphics/SVG/1.1/DTD/svg11.dtd">
<!-- Generated by graphviz version 2.43.0 (0)
 -->
<!-- Title: sourcetree Pages: 1 -->
<svg width="326pt" height="116pt"
 viewBox="0.00 0.00 326.00 116.00" xmlns="http://www.w3.org/2000/svg" xmlns:xlink="http://www.w3.org/1999/xlink">
<g id="graph0" class="graph" transform="scale(1 1) rotate(0) translate(4 112)">
<title>sourcetree</title>
<polygon fill="white" stroke="transparent" points="-4,4 -4,-112 322,-112 322,4 -4,4"/>
<!-- MulleObjCLockFoundation -->
<g id="node1" class="node">
<title>MulleObjCLockFoundation</title>
<polygon fill="yellow" stroke="black" points="233,-108 27,-108 27,-72 233,-72 233,-108"/>
<text text-anchor="middle" x="130" y="-86.3" font-family="Times,serif" font-size="14.00">MulleObjCLockFoundation</text>
</g>
<!-- MulleObjC -->
<g id="node2" class="node">
<title>MulleObjC</title>
<g id="a_node2"><a xlink:href="https://github.com/mulle-objc/MulleObjC" xlink:title="MulleObjC">
<polygon fill="lightgrey" stroke="black" points="92,-36 0,-36 0,0 92,0 92,-36"/>
<text text-anchor="middle" x="46" y="-14.3" font-family="Times,serif" font-size="14.00">MulleObjC</text>
</a>
</g>
</g>
<!-- MulleObjCLockFoundation&#45;&gt;MulleObjC -->
<g id="edge1" class="edge">
<title>MulleObjCLockFoundation&#45;&gt;MulleObjC</title>
<path fill="none" stroke="black" d="M109.24,-71.7C98.76,-62.97 85.89,-52.24 74.5,-42.75"/>
<polygon fill="black" stroke="black" points="76.45,-39.82 66.53,-36.1 71.97,-45.19 76.45,-39.82"/>
</g>
<!-- MulleObjCTimeFoundation -->
<g id="node3" class="node">
<title>MulleObjCTimeFoundation</title>
<g id="a_node3"><a xlink:href="https://github.com/MulleFoundation/MulleObjCTimeFoundation" xlink:title="MulleObjCTimeFoundation">
<polygon fill="lightgrey" stroke="black" points="318,-36 110,-36 110,0 318,0 318,-36"/>
<text text-anchor="middle" x="214" y="-14.3" font-family="Times,serif" font-size="14.00">MulleObjCTimeFoundation</text>
</a>
</g>
</g>
<!-- MulleObjCLockFoundation&#45;&gt;MulleObjCTimeFoundation -->
<g id="edge2" class="edge">
<title>MulleObjCLockFoundation&#45;&gt;MulleObjCTimeFoundation</title>
<path fill="none" stroke="black" d="M150.76,-71.7C161.24,-62.97 174.11,-52.24 185.5,-42.75"/>
<polygon fill="black" stroke="black" points="188.03,-45.19 193.47,-36.1 183.55,-39.82 188.03,-45.19"/>
</g>
</g>
</svg>
